<?xml version="1.0" encoding="UTF-8" standalone="no"?>
<!-- Created with Inkscape (http://www.inkscape.org/) -->
<svg
   xmlns:svg="http://www.w3.org/2000/svg"
   xmlns="http://www.w3.org/2000/svg"
   version="1.0"
   width="838.65228"
   height="1000"
   viewBox="0 0 839 1000"
   id="svg2">
  <defs
     id="defs4" />
  <g
     transform="translate(43.072108,-61.947898)"
     id="layer1">
    <path
       d="M 122.28477,454.54559 C 121.31779,450.87492 120.11419,447.27427 118.76241,443.72832 C 115.72939,436.43119 112.17905,429.35821 108.70462,422.26303 C 107.98063,420.83021 107.24796,419.40208 106.5391,417.96172 L 110.38724,415.7964 C 110.96927,417.30272 111.5809,418.79687 112.21689,420.28136 C 115.25344,427.58904 118.55762,434.77922 122.16877,441.82268 C 123.67376,445.2649 124.92903,448.79988 126.34485,452.27834 L 122.28477,454.54559 z "
       style="opacity:1;fill:#ffffff;fill-opacity:0;stroke:none;stroke-width:8.75199986;stroke-linejoin:round;stroke-miterlimit:4;stroke-dasharray:none;stroke-dashoffset:0;stroke-opacity:1"
       id="path20655" />
    <path
       d="M 35.051403,413.97614 C 37.269012,415.66 39.560799,417.24213 41.857816,418.81479 C 45.830248,421.66247 49.90706,424.35845 54.001266,427.02654 C 56.1144,428.41202 58.279857,429.71642 60.294312,431.23961 L 56.4465,433.63453 C 54.56152,432.04915 52.509505,430.68029 50.483872,429.2775 C 46.463419,426.50694 42.402249,423.79698 38.364573,421.05187 C 35.961994,419.4976 33.568882,417.92802 31.1215,416.44462 L 35.051403,413.97614 z "
       style="opacity:1;fill:#ffffff;fill-opacity:0;stroke:none;stroke-width:8.75199986;stroke-linejoin:round;stroke-miterlimit:4;stroke-dasharray:none;stroke-dashoffset:0;stroke-opacity:1"
       id="path20657" />
    <g
       transform="matrix(0.9415418,0,0,0.9415418,-6.6020509,60.037491)"
       id="g22792">
      <path
         d="M -33.695015,6.8804264 L 847.61191,6.6530764 L 848.10134,667.82086 C 786.76942,1181.1533 10.958879,1198.9095 -34.3584,669.64113 L -33.695015,6.8804264 z "
         style="fill:#1e91f7;fill-opacity:1;fill-rule:evenodd;stroke:#000000;stroke-width:8.75199986;stroke-linecap:butt;stroke-linejoin:miter;stroke-miterlimit:4;stroke-dasharray:none;stroke-opacity:1"
         id="path2188" />
      <g
         id="g15754">
        <path
           d="M 749.11748,899.11238 C 576.65807,1107.8748 225.32118,1115.3548 57.235342,908.60487 C 248.13062,798.85995 542.69813,813.63876 749.11748,899.11238 z "
           style="fill:#f8cd24;fill-opacity:1;fill-rule:evenodd;stroke:#000000;stroke-width:8.75199986;stroke-linecap:butt;stroke-linejoin:miter;stroke-miterlimit:4;stroke-dasharray:none;stroke-opacity:1"
           id="path2159" />
        <path
           d="M 273.3988,838.67672 C 365.12046,825.84418 462.80746,828.80549 555.54275,844.4971 L 547.89538,784.81029 L 513.70781,765.25773 L 307.38081,765.40605 L 279.11931,784.28431 L 273.3988,838.67672 z "
           style="fill:#000000;fill-opacity:1;fill-rule:evenodd;stroke:#000000;stroke-width:8.75199986;stroke-linecap:butt;stroke-linejoin:miter;stroke-miterlimit:4;stroke-dasharray:none;stroke-opacity:1"
           id="path2161" />
        <path
           d="M 507.42771,520.42151 L 512.80853,766.15701 L 311.87722,764.50677 L 324.08339,519.89553 L 507.42771,520.42151 z "
           style="fill:#f8f8f8;fill-opacity:1;fill-rule:evenodd;stroke:#000000;stroke-width:8.75199986;stroke-linecap:butt;stroke-linejoin:miter;stroke-miterlimit:4;stroke-dasharray:none;stroke-opacity:1"
           id="path3133" />
        <path
           d="M 507.42771,520.42151 L 504.30818,360.37132 L 332.15388,360.00891 L 324.08339,519.89553 L 507.42771,520.42151 z "
           style="fill:#ea1d1e;fill-opacity:1;fill-rule:evenodd;stroke:#000000;stroke-width:8.75199986;stroke-linecap:butt;stroke-linejoin:miter;stroke-miterlimit:4;stroke-dasharray:none;stroke-opacity:1"
           id="path4104" />
        <path
           d="M 518.10922,359.34431 L 518.40778,338.58104 L 316.34524,338.21862 L 315.96544,359.24559 L 518.10922,359.34431 z "
           style="fill:#ea1d1e;fill-opacity:1;fill-rule:evenodd;stroke:#000000;stroke-width:8.75199986;stroke-linecap:butt;stroke-linejoin:miter;stroke-miterlimit:4;stroke-dasharray:none;stroke-opacity:1"
           id="path5075" />
        <path
           d="M 542.50204,338.00059 L 542.41946,290.55768 L 289.6656,289.81412 L 290.04807,337.90188 L 542.50204,338.00059 z "
           style="fill:#ea1d1e;fill-opacity:1;fill-rule:evenodd;stroke:#000000;stroke-width:8.75199986;stroke-linecap:butt;stroke-linejoin:miter;stroke-miterlimit:4;stroke-dasharray:none;stroke-opacity:1"
           id="path6046" />
        <path
           d="M 521.9206,289.97723 L 521.83802,227.66994 L 310.24704,226.16411 L 309.48609,289.87852 L 521.9206,289.97723 z "
           style="fill:#f8f8f8;fill-opacity:1;fill-rule:evenodd;stroke:#000000;stroke-width:8.75199986;stroke-linecap:butt;stroke-linejoin:miter;stroke-miterlimit:4;stroke-dasharray:none;stroke-opacity:1"
           id="path7017" />
        <path
           d="M 352.4162,226.41307 L 368.35385,118.11221 L 348.48889,117.63994 L 331.7077,226.31437 L 352.4162,226.41307 z "
           style="fill:#f8cd24;fill-opacity:1;fill-rule:evenodd;stroke:#000000;stroke-width:8.75199986;stroke-linecap:butt;stroke-linejoin:miter;stroke-miterlimit:4;stroke-dasharray:none;stroke-opacity:1"
           id="path7988" />
        <path
           d="M 480.45825,226.92985 L 463.48704,118.62899 L 484.38556,118.15672 L 501.16675,226.83115 L 480.45825,226.92985 z "
           style="fill:#f8cd24;fill-opacity:1;fill-rule:evenodd;stroke:#000000;stroke-width:8.75199986;stroke-linecap:butt;stroke-linejoin:miter;stroke-miterlimit:4;stroke-dasharray:none;stroke-opacity:1"
           id="path8959" />
        <path
           d="M 521.40382,118.40569 L 415.15373,57.693262 L 301.73436,118.30699 L 521.40382,118.40569 z "
           style="fill:#f8cd24;fill-opacity:1;fill-rule:evenodd;stroke:#000000;stroke-width:8.75199986;stroke-linecap:butt;stroke-linejoin:round;stroke-miterlimit:4;stroke-dasharray:none;stroke-opacity:1"
           id="path8961" />
        <path
           d="M 427.58669,47.14415 C 427.58994,51.178055 424.6114,54.450074 420.93606,54.450074 C 417.26073,54.450074 414.28219,51.178055 414.28544,47.14415 C 414.28219,43.110245 417.26073,39.838226 420.93607,39.838226 C 424.6114,39.838226 427.58994,43.110245 427.58669,47.14415 L 427.58669,47.14415 z "
           transform="matrix(2.9782047,0,0,2.6912531,-837.88844,-84.761215)"
           style="fill:#f8cd24;fill-opacity:1;fill-rule:evenodd;stroke:#000000;stroke-width:2.96152139;stroke-linecap:butt;stroke-linejoin:miter;stroke-miterlimit:4;stroke-dasharray:none;stroke-opacity:1"
           id="path9932" />
        <path
           d="M 449.2619,225.8963 C 468.09643,95.923642 364.3194,93.029092 383.65851,225.79759 L 449.2619,225.8963 z "
           style="fill:#f8cd24;fill-opacity:1;fill-rule:evenodd;stroke:#000000;stroke-width:8.75199986;stroke-linecap:butt;stroke-linejoin:miter;stroke-miterlimit:4;stroke-dasharray:none;stroke-opacity:1"
           id="path11872" />
        <path
           d="M 377.8169,181.10387 L -33.621023,20.552329 L -33.891447,304.83776 L 377.8169,181.10387 z "
           style="fill:#f8cd24;fill-opacity:1;fill-rule:evenodd;stroke:#000000;stroke-width:8.75199986;stroke-linecap:butt;stroke-linejoin:bevel;stroke-miterlimit:4;stroke-dasharray:none;stroke-opacity:1"
           id="path13812" />
        <path
           d="M 449.60501,181.82985 L 847.49615,31.231188 L 846.2742,306.73944 L 449.60501,181.82985 z "
           style="fill:#f8cd24;fill-opacity:1;fill-rule:evenodd;stroke:#000000;stroke-width:8.75199986;stroke-linecap:butt;stroke-linejoin:bevel;stroke-miterlimit:4;stroke-dasharray:none;stroke-opacity:1"
           id="path15752" />
      </g>
      <g
         id="g22738">
        <g
           id="g22684">
          <g
             id="g19660">
            <g
               id="g17712">
              <path
                 d="M 223.54132,846.04949 C 150.56436,734.89339 141.13565,757.45551 78.280003,728.77424 C 89.835897,775.6187 100.35817,813.68884 138.71688,869.01352 C 90.287206,833.52951 71.347161,827.74352 54.683731,719.38044 L 74.084374,687.86278 C 132.55824,719.22904 197.69808,731.18406 223.54132,846.04949 z "
                 style="fill:#f8cd24;fill-opacity:1;fill-rule:evenodd;stroke:#000000;stroke-width:8.75199986;stroke-linecap:butt;stroke-linejoin:miter;stroke-miterlimit:4;stroke-dasharray:none;stroke-opacity:1"
                 id="path15770" />
              <path
                 d="M 52.939565,720.51854 C 61.107559,723.79742 64.762197,722.28807 76.369694,727.88875"
                 style="fill:none;fill-rule:evenodd;stroke:#000000;stroke-width:8.75199986;stroke-linecap:butt;stroke-linejoin:miter;stroke-miterlimit:4;stroke-dasharray:none;stroke-opacity:1"
                 id="path15772" />
            </g>
            <g
               transform="translate(-39.0394,-149.65103)"
               style="fill:#f8cd24;fill-opacity:1"
               id="g17716">
              <path
                 d="M 265.79535,974.96008 C 199.26392,860.22313 121.08289,756.73934 89.022552,700.84361 C 100.57845,747.68807 88.228042,758.3932 99.327534,811.71993 C 70.234448,755.46699 66.952226,746.56063 64.290732,662.13634 L 97.754347,649.54021 C 115.54275,715.66837 263.69109,909.46161 265.79535,974.96008 z "
                 style="fill:#f8cd24;fill-opacity:1;fill-rule:evenodd;stroke:#000000;stroke-width:8.75199986;stroke-linecap:butt;stroke-linejoin:miter;stroke-miterlimit:4;stroke-dasharray:none;stroke-opacity:1"
                 id="path17718" />
              <path
                 d="M 67.499718,662.69198 L 91.606216,705.73797"
                 style="fill:#f8cd24;fill-opacity:1;fill-rule:evenodd;stroke:#000000;stroke-width:8.75199986;stroke-linecap:butt;stroke-linejoin:miter;stroke-miterlimit:4;stroke-dasharray:none;stroke-opacity:1"
                 id="path17720" />
            </g>
          </g>
          <g
             style="fill:#f8cd24;fill-opacity:1"
             id="g22629">
            <path
               d="M 214.80108,698.47665 C 204.55799,673.73684 165.07187,691.60905 165.84798,637.68193 C 152.48607,621.19108 120.68835,572.92412 152.02325,588.69293 C 138.93352,572.21983 105.0322,527.65234 143.27707,540.11737 C 120.7303,523.6582 91.431778,483.63475 112.39492,492.89661 L 65.440045,399.42331 C 85.682237,371.88727 113.06758,348.98795 164.63788,345.63503 L 186.82852,451.14361 C 192.23593,419.74706 200.8317,479.62814 199.46059,507.22201 C 211.9189,496.60098 214.01333,537.99751 212.74934,557.53058 C 227.08263,538.47461 228.40441,590.19935 226.98303,611.14519 C 239.10666,587.62822 247.04418,648.21796 236.11876,661.49674 C 230.15785,668.74163 228.91419,678.99318 231.91182,695.13103 C 240.97352,743.915 253.62184,792.17435 249.12223,842.34115 L 233.5198,844.82317 C 235.74798,796.04099 226.85267,747.25882 214.80108,698.47665 z "
               style="fill:#f8cd24;fill-opacity:1;fill-rule:evenodd;stroke:#000000;stroke-width:8.75199986;stroke-linecap:butt;stroke-linejoin:round;stroke-miterlimit:4;stroke-dasharray:none;stroke-opacity:1"
               id="path19682" />
            <path
               d="M 77.391113,384.98132 L 119.06325,469.26558"
               style="fill:#f8cd24;fill-opacity:1;fill-rule:evenodd;stroke:#000000;stroke-width:8.75199986;stroke-linecap:round;stroke-linejoin:miter;stroke-miterlimit:4;stroke-dasharray:none;stroke-opacity:1"
               id="path20659" />
            <path
               d="M 88.984113,376.83489 L 131.2829,461.11915"
               style="fill:#f8cd24;fill-opacity:1;fill-rule:evenodd;stroke:#000000;stroke-width:8.75199986;stroke-linecap:round;stroke-linejoin:miter;stroke-miterlimit:4;stroke-dasharray:none;stroke-opacity:1"
               id="path22599" />
            <path
               d="M 100.57711,364.92856 L 130.0296,428.22009"
               style="fill:#f8cd24;fill-opacity:1;fill-rule:evenodd;stroke:#000000;stroke-width:8.75199986;stroke-linecap:round;stroke-linejoin:miter;stroke-miterlimit:4;stroke-dasharray:none;stroke-opacity:1"
               id="path22601" />
            <path
               d="M 115.61668,358.03542 L 140.05598,425.40017"
               style="fill:#f8cd24;fill-opacity:1;fill-rule:evenodd;stroke:#000000;stroke-width:8.75199986;stroke-linecap:round;stroke-linejoin:miter;stroke-miterlimit:4;stroke-dasharray:none;stroke-opacity:1"
               id="path22603" />
            <path
               d="M 129.71627,353.33556 L 152.58895,418.19371"
               style="fill:#f8cd24;fill-opacity:1;fill-rule:evenodd;stroke:#000000;stroke-width:8.75199986;stroke-linecap:round;stroke-linejoin:miter;stroke-miterlimit:4;stroke-dasharray:none;stroke-opacity:1"
               id="path22605" />
            <path
               d="M 145.69582,350.82896 L 171.07509,434.17325"
               style="fill:#f8cd24;fill-opacity:1;fill-rule:evenodd;stroke:#000000;stroke-width:8.75199986;stroke-linecap:round;stroke-linejoin:miter;stroke-miterlimit:4;stroke-dasharray:none;stroke-opacity:1"
               id="path22607" />
            <path
               d="M 188.30793,451.09275 C 164.94485,468.19518 165.60778,491.20559 172.01506,516.57756"
               style="fill:#f8cd24;fill-opacity:1;fill-rule:evenodd;stroke:#000000;stroke-width:8.75199986;stroke-linecap:round;stroke-linejoin:miter;stroke-miterlimit:4;stroke-dasharray:none;stroke-opacity:1"
               id="path22609" />
            <path
               d="M 113.03588,491.82492 C 131.07245,494.51443 148.89566,488.07235 162.85446,517.51753"
               style="fill:#f8cd24;fill-opacity:1;fill-rule:evenodd;stroke:#000000;stroke-width:8.75199986;stroke-linecap:round;stroke-linejoin:miter;stroke-miterlimit:4;stroke-dasharray:none;stroke-opacity:1"
               id="path22611" />
            <path
               d="M 168.65097,481.01525 C 171.91462,462.0387 161.12386,434.81576 131.67868,420.85696"
               style="fill:#f8cd24;fill-opacity:1;fill-rule:evenodd;stroke:#000000;stroke-width:8.75199986;stroke-linecap:round;stroke-linejoin:miter;stroke-miterlimit:4;stroke-dasharray:none;stroke-opacity:1"
               id="path22613" />
            <path
               d="M 154.79943,506.0812 C 143.70267,486.79133 129.42748,484.00769 129.7335,421.79694"
               style="fill:#f8cd24;fill-opacity:1;fill-rule:evenodd;stroke:#000000;stroke-width:8.75199986;stroke-linecap:round;stroke-linejoin:miter;stroke-miterlimit:4;stroke-dasharray:none;stroke-opacity:1"
               id="path22615" />
            <path
               d="M 199.27428,507.49113 C 175.9112,524.59356 184.72056,546.03735 191.12784,571.40932"
               style="fill:#f8cd24;fill-opacity:1;fill-rule:evenodd;stroke:#000000;stroke-width:8.75199986;stroke-linecap:round;stroke-linejoin:miter;stroke-miterlimit:4;stroke-dasharray:none;stroke-opacity:1"
               id="path22617" />
            <path
               d="M 212.4339,557.62303 C 197.8439,577.54538 197.88018,589.90276 204.28746,615.27473"
               style="fill:#f8cd24;fill-opacity:1;fill-rule:evenodd;stroke:#000000;stroke-width:8.75199986;stroke-linecap:round;stroke-linejoin:miter;stroke-miterlimit:4;stroke-dasharray:none;stroke-opacity:1"
               id="path22619" />
            <path
               d="M 226.84682,610.26152 C 212.25682,630.18387 215.73966,630.63492 218.70038,656.00689"
               style="fill:#f8cd24;fill-opacity:1;fill-rule:evenodd;stroke:#000000;stroke-width:8.75199986;stroke-linecap:round;stroke-linejoin:miter;stroke-miterlimit:4;stroke-dasharray:none;stroke-opacity:1"
               id="path22621" />
            <path
               d="M 138.10183,538.82357 C 157.70502,542.76638 162.68193,539.14422 176.64073,568.5894"
               style="fill:#f8cd24;fill-opacity:1;fill-rule:evenodd;stroke:#000000;stroke-width:8.75199986;stroke-linecap:round;stroke-linejoin:miter;stroke-miterlimit:4;stroke-dasharray:none;stroke-opacity:1"
               id="path22623" />
            <path
               d="M 152.51475,587.38884 C 170.55132,590.07835 176.4682,592.40935 190.11368,613.39477"
               style="fill:#f8cd24;fill-opacity:1;fill-rule:evenodd;stroke:#000000;stroke-width:8.75199986;stroke-linecap:round;stroke-linejoin:miter;stroke-miterlimit:4;stroke-dasharray:none;stroke-opacity:1"
               id="path22625" />
            <path
               d="M 164.42108,632.50754 C 182.45765,635.19705 194.95435,635.33478 208.2865,667.59988"
               style="fill:#f8cd24;fill-opacity:1;fill-rule:evenodd;stroke:#000000;stroke-width:8.75199986;stroke-linecap:round;stroke-linejoin:miter;stroke-miterlimit:4;stroke-dasharray:none;stroke-opacity:1"
               id="path22627" />
          </g>
        </g>
        <g
           id="g22711">
          <g
             transform="matrix(-1,0,0,1,826.754,2.1688555)"
             id="g19668">
            <g
               id="g19670">
              <path
                 d="M 223.54132,846.04949 C 150.56436,734.89339 141.13565,757.45551 78.280003,728.77424 C 89.835897,775.6187 100.35817,813.68884 138.71688,869.01352 C 90.287206,833.52951 71.347161,827.74352 54.683731,719.38044 L 74.084374,687.86278 C 132.55824,719.22904 197.69808,731.18406 223.54132,846.04949 z "
                 style="fill:#f8cd24;fill-opacity:1;fill-rule:evenodd;stroke:#000000;stroke-width:8.75199986;stroke-linecap:butt;stroke-linejoin:miter;stroke-miterlimit:4;stroke-dasharray:none;stroke-opacity:1"
                 id="path19672" />
              <path
                 d="M 52.939565,720.51854 C 61.107559,723.79742 64.762197,722.28807 76.369694,727.88875"
                 style="fill:none;fill-rule:evenodd;stroke:#000000;stroke-width:8.75199986;stroke-linecap:butt;stroke-linejoin:miter;stroke-miterlimit:4;stroke-dasharray:none;stroke-opacity:1"
                 id="path19674" />
            </g>
            <g
               transform="translate(-39.0394,-149.65103)"
               style="fill:#f8cd24;fill-opacity:1"
               id="g19676">
              <path
                 d="M 265.79535,974.96008 C 199.26392,860.22313 121.08289,756.73934 89.022552,700.84361 C 100.57845,747.68807 88.228042,758.3932 99.327534,811.71993 C 70.234448,755.46699 66.952226,746.56063 64.290732,662.13634 L 97.754347,649.54021 C 115.54275,715.66837 263.69109,909.46161 265.79535,974.96008 z "
                 style="fill:#f8cd24;fill-opacity:1;fill-rule:evenodd;stroke:#000000;stroke-width:8.75199986;stroke-linecap:butt;stroke-linejoin:miter;stroke-miterlimit:4;stroke-dasharray:none;stroke-opacity:1"
                 id="path19678" />
              <path
                 d="M 67.499718,662.69198 L 91.606216,705.73797"
                 style="fill:#f8cd24;fill-opacity:1;fill-rule:evenodd;stroke:#000000;stroke-width:8.75199986;stroke-linecap:butt;stroke-linejoin:miter;stroke-miterlimit:4;stroke-dasharray:none;stroke-opacity:1"
                 id="path19680" />
            </g>
          </g>
          <g
             transform="matrix(-1,0,0,1,827.3512,2.1688555)"
             style="fill:#f8cd24;fill-opacity:1"
             id="g22648">
            <path
               d="M 214.80108,698.47665 C 204.55799,673.73684 165.07187,691.60905 165.84798,637.68193 C 152.48607,621.19108 120.68835,572.92412 152.02325,588.69293 C 138.93352,572.21983 105.0322,527.65234 143.27707,540.11737 C 120.7303,523.6582 91.431778,483.63475 112.39492,492.89661 L 65.440045,399.42331 C 85.682237,371.88727 113.06758,348.98795 164.63788,345.63503 L 186.82852,451.14361 C 192.23593,419.74706 200.8317,479.62814 199.46059,507.22201 C 211.9189,496.60098 214.01333,537.99751 212.74934,557.53058 C 227.08263,538.47461 228.40441,590.19935 226.98303,611.14519 C 239.10666,587.62822 247.04418,648.21796 236.11876,661.49674 C 230.15785,668.74163 228.91419,678.99318 231.91182,695.13103 C 240.97352,743.915 254.57482,795.98628 250.07521,846.15308 L 233.5198,849.58809 C 235.74798,800.80591 226.85267,747.25882 214.80108,698.47665 z "
               style="fill:#f8cd24;fill-opacity:1;fill-rule:evenodd;stroke:#000000;stroke-width:8.75199986;stroke-linecap:butt;stroke-linejoin:round;stroke-miterlimit:4;stroke-dasharray:none;stroke-opacity:1"
               id="path22650" />
            <path
               d="M 77.391113,384.98132 L 119.06325,469.26558"
               style="fill:#f8cd24;fill-opacity:1;fill-rule:evenodd;stroke:#000000;stroke-width:8.75199986;stroke-linecap:round;stroke-linejoin:miter;stroke-miterlimit:4;stroke-dasharray:none;stroke-opacity:1"
               id="path22652" />
            <path
               d="M 88.984113,376.83489 L 131.2829,461.11915"
               style="fill:#f8cd24;fill-opacity:1;fill-rule:evenodd;stroke:#000000;stroke-width:8.75199986;stroke-linecap:round;stroke-linejoin:miter;stroke-miterlimit:4;stroke-dasharray:none;stroke-opacity:1"
               id="path22654" />
            <path
               d="M 100.57711,364.92856 L 130.0296,428.22009"
               style="fill:#f8cd24;fill-opacity:1;fill-rule:evenodd;stroke:#000000;stroke-width:8.75199986;stroke-linecap:round;stroke-linejoin:miter;stroke-miterlimit:4;stroke-dasharray:none;stroke-opacity:1"
               id="path22656" />
            <path
               d="M 115.61668,358.03542 L 140.05598,425.40017"
               style="fill:#f8cd24;fill-opacity:1;fill-rule:evenodd;stroke:#000000;stroke-width:8.75199986;stroke-linecap:round;stroke-linejoin:miter;stroke-miterlimit:4;stroke-dasharray:none;stroke-opacity:1"
               id="path22658" />
            <path
               d="M 129.71627,353.33556 L 152.58895,418.19371"
               style="fill:#f8cd24;fill-opacity:1;fill-rule:evenodd;stroke:#000000;stroke-width:8.75199986;stroke-linecap:round;stroke-linejoin:miter;stroke-miterlimit:4;stroke-dasharray:none;stroke-opacity:1"
               id="path22660" />
            <path
               d="M 145.69582,350.82896 L 171.07509,434.17325"
               style="fill:#f8cd24;fill-opacity:1;fill-rule:evenodd;stroke:#000000;stroke-width:8.75199986;stroke-linecap:round;stroke-linejoin:miter;stroke-miterlimit:4;stroke-dasharray:none;stroke-opacity:1"
               id="path22662" />
            <path
               d="M 188.30793,451.09275 C 164.94485,468.19518 165.60778,491.20559 172.01506,516.57756"
               style="fill:#f8cd24;fill-opacity:1;fill-rule:evenodd;stroke:#000000;stroke-width:8.75199986;stroke-linecap:round;stroke-linejoin:miter;stroke-miterlimit:4;stroke-dasharray:none;stroke-opacity:1"
               id="path22664" />
            <path
               d="M 113.03588,491.82492 C 131.07245,494.51443 148.89566,488.07235 162.85446,517.51753"
               style="fill:#f8cd24;fill-opacity:1;fill-rule:evenodd;stroke:#000000;stroke-width:8.75199986;stroke-linecap:round;stroke-linejoin:miter;stroke-miterlimit:4;stroke-dasharray:none;stroke-opacity:1"
               id="path22666" />
            <path
               d="M 168.65097,481.01525 C 171.91462,462.0387 161.12386,434.81576 131.67868,420.85696"
               style="fill:#f8cd24;fill-opacity:1;fill-rule:evenodd;stroke:#000000;stroke-width:8.75199986;stroke-linecap:round;stroke-linejoin:miter;stroke-miterlimit:4;stroke-dasharray:none;stroke-opacity:1"
               id="path22668" />
            <path
               d="M 154.79943,506.0812 C 143.70267,486.79133 129.42748,484.00769 129.7335,421.79694"
               style="fill:#f8cd24;fill-opacity:1;fill-rule:evenodd;stroke:#000000;stroke-width:8.75199986;stroke-linecap:round;stroke-linejoin:miter;stroke-miterlimit:4;stroke-dasharray:none;stroke-opacity:1"
               id="path22670" />
            <path
               d="M 199.27428,507.49113 C 175.9112,524.59356 184.72056,546.03735 191.12784,571.40932"
               style="fill:#f8cd24;fill-opacity:1;fill-rule:evenodd;stroke:#000000;stroke-width:8.75199986;stroke-linecap:round;stroke-linejoin:miter;stroke-miterlimit:4;stroke-dasharray:none;stroke-opacity:1"
               id="path22672" />
            <path
               d="M 212.4339,557.62303 C 197.8439,577.54538 197.88018,589.90276 204.28746,615.27473"
               style="fill:#f8cd24;fill-opacity:1;fill-rule:evenodd;stroke:#000000;stroke-width:8.75199986;stroke-linecap:round;stroke-linejoin:miter;stroke-miterlimit:4;stroke-dasharray:none;stroke-opacity:1"
               id="path22674" />
            <path
               d="M 226.84682,610.26152 C 212.25682,630.18387 215.73966,630.63492 218.70038,656.00689"
               style="fill:#f8cd24;fill-opacity:1;fill-rule:evenodd;stroke:#000000;stroke-width:8.75199986;stroke-linecap:round;stroke-linejoin:miter;stroke-miterlimit:4;stroke-dasharray:none;stroke-opacity:1"
               id="path22676" />
            <path
               d="M 138.10183,538.82357 C 157.70502,542.76638 162.68193,539.14422 176.64073,568.5894"
               style="fill:#f8cd24;fill-opacity:1;fill-rule:evenodd;stroke:#000000;stroke-width:8.75199986;stroke-linecap:round;stroke-linejoin:miter;stroke-miterlimit:4;stroke-dasharray:none;stroke-opacity:1"
               id="path22678" />
            <path
               d="M 152.51475,587.38884 C 170.55132,590.07835 176.4682,592.40935 190.11368,613.39477"
               style="fill:#f8cd24;fill-opacity:1;fill-rule:evenodd;stroke:#000000;stroke-width:8.75199986;stroke-linecap:round;stroke-linejoin:miter;stroke-miterlimit:4;stroke-dasharray:none;stroke-opacity:1"
               id="path22680" />
            <path
               d="M 164.42108,632.50754 C 182.45765,635.19705 194.95435,635.33478 208.2865,667.59988"
               style="fill:#f8cd24;fill-opacity:1;fill-rule:evenodd;stroke:#000000;stroke-width:8.75199986;stroke-linecap:round;stroke-linejoin:miter;stroke-miterlimit:4;stroke-dasharray:none;stroke-opacity:1"
               id="path22682" />
          </g>
        </g>
      </g>
    </g>
  </g>
</svg>
