<?xml version="1.0" encoding="UTF-8" standalone="no"?>
<!-- Created with Inkscape (http://www.inkscape.org/) -->
<svg
   xmlns:svg="http://www.w3.org/2000/svg"
   xmlns="http://www.w3.org/2000/svg"
   version="1.0"
   width="754.50848"
   height="961.01929"
   viewBox="0 0 755 962"
   id="svg2">
  <defs
     id="defs5" />
  <g
     transform="matrix(1.3328978,0,0,1.3328978,1.5019991,0)"
     id="g3188">
    <g
       id="g3170"
       style="stroke:none">
      <path
         d="M 280.14444,721 C 433.34291,706.9756 525.99999,584.58073 553.48642,478.92595 L 11.132114,478.07003 C 36.715413,578.21675 122.2301,706.65069 280.14444,721 z"
         id="path2384"
         style="fill:#00b200;fill-opacity:1;fill-rule:evenodd;stroke:none;stroke-width:1px;stroke-linecap:butt;stroke-linejoin:miter;stroke-opacity:1" />
      <path
         d="M 553.45633,479.04153 C 558.99036,457.80358 561.89178,437.24004 562.123,418.36671 L 563.36248,250.04277 L 1.5688499,248.9472 L 2.8163961,418.36671 C 2.855266,435.9347 5.6421185,456.47756 11.166765,478.14312 L 553.45633,479.04153 z"
         id="path2389"
         style="fill:#fff200;fill-opacity:1;fill-rule:evenodd;stroke:none;stroke-width:1px;stroke-linecap:butt;stroke-linejoin:miter;stroke-opacity:1" />
      <path
         d="M 563.35846,250.58887 L 564.9394,35.893939 C 476.46461,56.12602 383.40894,50.399807 282.4697,2.1212145e-08 C 181.53046,50.399807 88.474791,56.12602 0,35.893939 L 1.5729308,249.50139 L 563.35846,250.58887 z"
         id="path2391"
         style="fill:#0072d8;fill-opacity:1;fill-rule:evenodd;stroke:none;stroke-width:1px;stroke-linecap:butt;stroke-linejoin:miter;stroke-opacity:1" />
      <path
         d="M 281.34188,0 C 180.40265,50.399807 87.347923,56.138331 -1.1268674,35.90625 L 1.6856326,418.375 C 1.7245026,435.943 4.4422426,456.27194 9.9668826,477.9375 L 9.9981326,478.0625 C 35.581413,578.20921 121.08379,706.65069 278.99813,721 C 432.15045,706.97983 524.79328,584.66427 552.31058,479.03125 C 557.84458,457.7933 560.76698,437.24833 560.99818,418.375 L 563.81058,35.90625 C 475.33582,56.13833 382.28112,50.399807 281.34188,0 z"
         id="path2393"
         style="fill:none;fill-opacity:1;fill-rule:evenodd;stroke:none;stroke-width:2;stroke-linecap:butt;stroke-linejoin:miter;stroke-miterlimit:4;stroke-dasharray:none;stroke-opacity:1" />
    </g>
    <path
       d="M 306.95732,264.70937 C 303.27122,278.16721 314.86032,286.15921 308.63562,296.96858 C 303.82132,302.44882 299.48402,308.20169 304.90622,319.53138 C 309.69642,324.69063 306.64412,340.5504 296.70152,342.46711 C 293.64332,340.60799 291.23542,338.45985 292.59922,334.6354 C 293.50272,332.46896 295.83222,336.00618 297.63392,337.43244 C 299.23572,334.77938 293.70202,329.45334 293.53152,322.51489 C 295.27192,323.12228 297.01232,324.43274 298.75272,325.4984 C 300.20562,322.50275 294.61952,318.07611 295.20982,311.88613 C 297.60332,314.65534 299.44702,313.57643 301.36322,313.00495 C 295.14422,307.67567 294.48152,298.85111 290.54802,296.59564 L 302.48202,289.32334 C 298.87192,285.55873 296.22792,287.06496 293.53152,288.20452 C 291.16662,287.22593 291.17612,285.95054 292.78572,284.47513 C 296.52462,286.0721 294.49322,280.4561 294.65032,277.57576 C 292.25582,278.85625 285.16132,277.24437 288.49692,282.05103 C 288.44112,284.85175 285.04402,285.1881 284.58102,282.7969 C 284.51292,277.58523 282.24972,275.88574 279.73282,274.59225 L 277.30872,289.32333 C 274.21322,289.65561 270.68272,289.22674 269.47702,292.86625 C 263.67976,293.07906 258.60705,294.30625 260.15353,304.80029 C 266.20002,302.28976 269.70822,303.33288 270.78232,307.7838 C 266.86962,310.51648 258.22322,299.65565 252.50828,312.25907 C 258.56607,308.51547 262.71804,308.20236 266.30702,308.90262 C 264.46492,311.92577 262.30549,311.77533 259.96706,309.83497 C 261.57444,313.25331 264.83032,314.36381 268.91762,314.31023 C 268.12532,321.33828 261.93033,321.25017 258.4753,324.37958 L 262.7641,325.4984 C 261.52765,327.7911 257.84786,328.12913 254.18651,328.48191 C 255.48155,329.62969 256.46589,330.90174 260.15353,331.09248 L 257.91589,333.33011 C 237.10095,325.94857 242.57098,310.50218 223.97846,308.90262 C 218.41201,309.687 211.45161,317.45207 213.34971,326.43075 L 216.33322,321.58254 L 216.51969,330.53307 C 218.39198,328.71085 218.50292,324.2466 223.04612,326.43075 C 226.27716,330.23858 222.6636,332.22117 218.57085,334.07599 C 221.91811,335.35789 226.57803,335.92423 228.6402,333.70305 C 230.61928,332.90755 234.18222,334.62371 236.65839,336.31363 C 237.24607,340.8972 236.18012,344.30389 239.64189,349.36648 L 242.066,346.94238 C 242.07443,349.40209 240.72746,352.13288 245.42244,353.65528 C 244.51802,351.12921 245.73697,350.30183 247.28714,349.73942 C 248.3098,352.86424 249.72849,355.97752 252.69475,358.13054 C 244.91274,357.3275 234.96441,359.03522 229.38608,355.14703 C 226.06298,348.70558 211.21517,345.35428 206.0774,361.30052 C 207.45391,361.56662 209.37255,361.01952 208.87444,364.09756 C 209.29754,367.39028 209.17739,370.92445 213.90912,372.30222 C 214.37762,376.36163 217.13997,376.4068 219.5032,377.15042 C 219.34943,374.45914 219.84402,372.63233 221.18142,371.92928 C 219.47675,374.03546 222.08435,375.27918 225.28375,376.40454 C 224.37679,372.63838 226.45701,371.85941 228.45373,370.99693 C 228.3121,372.65273 227.57627,374.60564 231.25077,374.35338 C 230.42329,372.17352 232.212,371.62878 235.3531,371.92928 C 236.88165,371.92928 238.28725,373.79169 236.09897,374.53985 C 234.09054,375.22652 241.27165,374.88486 240.76071,373.6075 C 244.77259,375.48336 248.22657,375.1276 251.7624,375.09926 C 251.05019,377.29398 250.95326,379.84027 246.9142,380.13393 C 249.5548,381.98465 253.6706,381.62258 258.28883,380.50687 L 254.93238,385.35508 C 264.27067,388.29646 271.93952,376.74812 276.74932,383.11744 C 268.93362,389.51709 263.29188,397.06762 263.88292,407.91787 C 261.04638,412.74989 253.9597,414.12638 250.83006,419.10604 C 247.56578,419.90768 244.3218,420.83114 240.57424,418.7331 C 230.82139,411.48868 218.35709,414.30522 216.14675,428.05657 C 217.28656,426.9243 218.40158,425.75899 220.99495,426.56481 C 220.67322,430.21514 217.21163,433.47298 220.43554,437.56651 C 220.90692,435.15281 222.58927,435.16107 224.53787,435.70181 C 225.90798,441.37533 225.79893,448.07288 233.30193,449.50055 C 232.7859,441.26919 236.50385,442.56428 239.82836,442.97412 C 243.48797,440.42532 246.40688,439.85169 247.10067,445.21175 C 251.4569,445.19455 250.97015,441.94869 251.01653,439.05826 C 252.54204,430.75794 259.45095,435.18364 264.06938,430.85361 C 266.45662,432.46968 266.10322,434.08574 265.56112,435.70181 C 269.36532,436.42418 267.70062,431.52083 273.76582,427.68363 C 273.25152,429.95762 274.34272,431.31423 277.30872,431.59949 C 276.09362,429.22048 277.19152,427.99796 277.86812,426.56481 C 280.02972,430.01067 281.58182,429.19024 283.27572,429.36186 C 280.97742,425.75678 281.34802,422.15171 284.02162,418.54663 C 288.90992,423.53965 292.80742,429.29038 305.83852,428.05657 C 305.51052,431.84018 306.39792,435.74532 301.36322,439.05826 C 292.96862,438.61882 285.05082,438.58886 284.39462,447.82233 C 278.80982,450.71298 278.48072,455.49842 285.32692,463.85869 L 287.19162,460.87518 C 289.05112,464.14741 290.85502,467.51701 294.65032,467.40161 L 294.09092,462.55341 C 296.22542,461.38704 298.19482,469.17473 310.50022,468.14749 C 305.21602,465.70787 306.26142,462.35029 307.33032,461.994 C 313.17922,462.49744 313.51332,457.48606 314.04322,452.67053 C 315.90552,454.23172 317.84292,455.56744 320.19672,455.65404 C 321.38662,453.80896 320.53482,450.33048 319.26432,446.51704 C 320.32102,446.69237 321.37762,446.55939 322.43432,449.12761 C 323.48122,445.62286 323.43052,441.75228 322.99372,437.75298 L 324.85842,435.14241 C 326.47452,435.60977 328.09052,436.74742 329.70662,440.17708 C 332.67732,423.01797 323.36622,422.0766 327.46892,417.98722 C 336.48122,417.60568 350.23972,392.34474 328.21482,374.91279 C 347.28382,371.20297 348.06952,396.42682 360.84702,390.76269 C 362.54432,388.46501 355.27292,385.4993 355.25292,382.7445 C 360.86202,383.5969 362.73812,388.12027 367.00052,388.52506 C 362.41732,371.419 351.01132,368.33778 337.53832,369.50518 C 328.76492,368.48322 313.76192,369.88388 312.92432,365.77579 C 323.47762,358.25951 325.76532,371.10711 342.38652,365.96226 C 341.30832,362.19453 337.55852,364.91167 335.11422,361.11405 C 342.11642,360.78179 346.32692,357.65783 350.40472,354.40116 C 346.43142,353.87047 341.47692,353.83038 341.26772,351.41764 C 349.83432,352.13287 354.48082,347.45798 359.16882,342.84005 C 354.19652,345.94186 356.28632,339.95734 348.54002,339.4836 C 352.84502,339.39177 354.30552,332.93875 361.40642,331.09248 C 354.22812,332.50792 354.27702,327.33903 351.33702,329.04132 C 354.75562,327.39525 358.17432,317.5734 361.59292,311.51319 C 355.32542,312.50769 352.77222,313.5022 350.40472,314.4967 C 353.44422,309.15124 356.73742,303.80579 357.86352,298.46033 C 353.70112,299.80578 350.35042,302.11063 348.16712,303.49501 C 349.52002,298.93641 351.60992,294.82004 355.43942,291.74744 C 351.58572,291.79729 347.73202,291.94619 343.87832,294.91742 C 345.44002,288.45315 344.72002,281.98887 343.31892,275.5246 C 341.31452,279.84076 339.91622,284.91453 336.04662,286.89923 C 336.34572,278.30498 332.73992,273.05784 329.70662,267.31994 C 327.55662,268.80056 326.65232,272.77252 325.97722,277.20282 C 319.96912,274.76923 326.02322,263.94002 315.72142,262.0988 C 315.07192,264.82512 313.92972,267.67463 315.16202,269.93052 C 313.49252,267.48529 309.41882,267.40774 306.95732,264.70937 z M 274.51172,294.73095 C 274.30512,296.86627 278.30572,297.89373 281.03812,298.0874 C 280.32702,296.96858 277.41952,291.0806 274.51172,294.73095 z M 290.20802,411.16241 C 290.40892,416.24646 296.43632,420.99956 303.43212,419.32419 C 302.69062,414.04256 298.40662,415.69039 297.33662,412.81543 C 292.81552,414.38027 295.76812,409.17415 290.20802,411.16241 z M 327.40092,408.99282 C 336.27602,404.82459 332.88512,383.20943 319.85902,380.58157 C 319.58212,387.56997 317.88712,395.20294 320.37562,400.93436 C 319.01372,400.96592 317.40972,401.84463 316.55302,400.10785 C 316.62472,402.08755 315.53252,404.26124 317.06952,405.99673 C 320.17222,407.7628 323.22742,409.63599 327.40092,408.99282 z"
       id="path3176"
       style="fill:#000000;fill-opacity:1;fill-rule:evenodd;stroke:none;stroke-width:0.40000001;stroke-linecap:butt;stroke-linejoin:miter;stroke-miterlimit:4;stroke-dasharray:none;stroke-opacity:1" />
  </g>
</svg>
