<svg class="c-logo__image" viewBox="0 0 535 166" xmlns="http://www.w3.org/2000/svg">
<g fill="#ffffff" transform="matrix(1 0 0 -1 -.667 166.373)">
<path class="c-logo__letter-p" d="M93.333331,67.9999983 C90.1919977,65.562665 87.7599978,65.0573317 84.8519979,65.0573317 C82.2373313,65.0573317 79.4186647,65.9013317 75.8146648,68.7293316 C63.7679984,78.1613314 54.0239986,92.9706643 54.629332,113.327997 C55.3039986,135.99733 69.4359983,150.866663 78.035998,156.185329 C80.4453313,157.674663 83.1853313,158.359996 84.8906645,158.341329 C88.1213311,158.309329 90.5853311,157.169329 93.549331,154.991996 C103.611997,147.595996 115.28933,132.114663 115.28933,112.298664 C115.28933,90.2959977 103.963997,76.2426648 93.333331,67.9999983 M129.655997,147.66133 C118.523997,161.133329 99.8386642,166.609329 86.2919978,165.830663 C86.2919978,165.830663 72.4319982,165.802663 58.4186652,156.147996 C58.1853319,155.989329 53.1626653,152.854663 46.8853322,145.242663 C44.8146655,142.72933 41.1733323,135.062663 31.6066659,130.31733 C31.1173326,134.895997 27.442666,137.587997 23.8319994,137.587997 C21.0173328,137.587997 18.5399995,136.070663 17.1279996,133.822663 C15.033333,133.84133 12.8986663,133.52133 10.6439997,132.379997 C6.94933316,130.507997 5.89333319,127.22533 4.37599989,125.827997 C2.99333326,124.551997 1.73733329,124.16133 1.12799997,124.011997 L0.831999979,123.954664 C0.863999978,123.94933 3.05599992,123.503997 4.34266656,121.934664 C6.02666652,119.879997 7.37599982,117.22133 10.5493331,115.667997 C12.7866663,114.57733 14.6559996,114.15333 17.4173329,114.222664 C18.8733329,112.371997 21.2626661,111.210664 23.8319994,111.210664 C27.390666,111.210664 29.8906659,113.74133 30.8733326,115.830664 C32.7346658,110.913331 36.2079991,98.5639975 36.3053324,84.5746646 C36.4359991,65.7053317 35.6506658,56.4759986 31.6319992,44.2893322 C31.7453325,45.7813322 30.6973326,51.341332 24.4946661,52.1799987 C21.7773328,52.549332 18.8199995,51.2866654 16.9719996,48.4919988 C14.877333,48.5133321 12.8986663,48.1906655 10.6439997,47.0519988 C6.94933316,45.1799989 5.89333319,41.9013323 4.37599989,40.499999 C2.99333326,39.2266657 1.73733329,38.835999 1.12799997,38.687999 L0.831999979,38.627999 C0.863999978,38.6253324 3.04799992,38.3493324 4.33599989,36.7786657 C6.01866652,34.7239991 7.37599982,31.9586659 10.5493331,30.4066659 C12.7866663,29.3146659 14.649333,28.8226659 17.4146662,28.8933326 C18.8466662,27.2319993 20.8879995,25.8639994 23.5519994,25.846666 C27.2853327,25.8253327 29.3173326,27.7813326 30.4599992,29.6453326 C31.8679992,31.9346659 31.5879992,34.4533325 31.5879992,34.4533325 C31.5879992,34.4533325 42.2626656,31.8599992 49.5319988,20.2479995 C52.5186654,15.4759996 59.9346652,10.1533331 64.8039984,8.68533312 C64.6173317,4.39066656 68.7693316,1.00533331 72.6453315,1.00533331 C75.2133315,1.00533331 77.4973314,2.17199995 78.951998,4.01866657 C81.715998,3.9479999 83.6893312,4.43466656 85.9266645,5.52799986 C89.0986644,7.07866649 90.4586644,9.84399975 92.1426644,11.8986664 C93.429331,13.469333 95.6146643,13.745333 95.6453309,13.7519997 L95.3506643,13.8066663 C94.7426643,13.9559997 93.485331,14.3439996 92.101331,15.6173329 C90.5826644,17.0239996 89.5279978,20.3053328 85.8319979,22.1746661 C83.5799979,23.3146661 81.6186646,23.6386661 79.523998,23.6199994 C78.1106647,25.8639994 75.4613314,27.4759993 72.6453315,27.4759993 C68.4399983,27.4759993 63.8026651,23.9866661 64.8039984,17.1399996 C61.8319985,23.5159994 52.433332,39.9506657 55.085332,69.8066649 C56.1093319,68.9999983 57.1506652,68.1533316 57.8519986,67.642665 C60.0226652,66.0599983 64.2946651,63.5853317 66.3599983,62.6586651 C69.7079983,61.1506651 78.2053314,57.6359986 86.8479978,57.6359986 C92.0839977,57.6359986 95.2839976,57.5213319 101.317331,58.9239985 C104.517331,59.6666652 113.414664,61.8466651 121.014664,67.314665 C134.327997,76.8933314 140.843996,88.4266645 142.81333,103.595997 C145.059996,120.87733 140.727996,134.267997 129.655997,147.66133" transform="translate(.176 .066)"></path>
<path d="M45.3333322,30.6666659 L64.2959984,71.4559982 C65.462665,73.7039982 67.2799983,75.5599981 69.4986649,76.7746647 L51.0879987,76.7746647 C50.0959987,76.7199981 49.1546654,76.1986648 48.5959988,75.3239981 L34.8106658,45.6586655 L21.0906661,75.1853315 C20.5466662,76.1413314 19.5599995,76.7173314 18.5159995,76.7746647 L0.150666663,76.7746647 C2.25733328,75.6199981 4.00266657,73.8893315 5.17466654,71.7893315 L24.2906661,30.6666659 C25.942666,26.7079993 26.854666,22.3613328 26.854666,17.8053329 C26.854666,17.7973329 26.8573327,17.7919996 26.8573327,17.7866662 L26.8573327,8.66666645 L26.846666,8.66666645 C26.846666,5.43866653 25.6453327,2.4906666 23.6679994,0.245333327 L45.9346655,0.245333327 C44.0706656,2.36266661 42.8973323,5.10799987 42.7693323,8.1199998 L42.7693323,17.8386662 C42.7733323,22.3826661 43.6853322,26.7159993 45.3333322,30.6666659" transform="translate(149.747 76.943)"></path>
<path d="M31.9999992,69.3333316 C39.035999,69.3333316 44.7386655,63.6279984 44.7386655,56.5879986 C44.7386655,49.5586654 39.035999,43.8506656 31.9999992,43.8506656 C31.8973325,43.8506656 31.7959992,43.8533322 31.6933325,43.8559989 L19.2719995,43.8559989 L19.2719995,57.1226652 C19.5506662,63.9093317 25.1413327,69.3333316 31.9999992,69.3333316 M37.9466657,35.9866658 C49.3893321,35.1066658 60.1613318,43.3093323 60.6506652,56.2293319 C61.0799985,67.466665 51.389332,77.2893314 39.959999,77.2893314 L39.9573323,77.2893314 L0.177333329,77.2946647 C2.15466661,75.0466648 3.35599992,72.0986649 3.35599992,68.8719983 L3.36133325,68.8719983 L3.36133325,8.60666645 C3.22799992,5.60399986 2.05599995,2.87199993 0.194666662,0.759999981 L22.4626661,0.759999981 C20.4826662,3.00533326 19.2826662,5.95333318 19.2826662,9.1813331 L19.2719995,9.1813331 L19.2719995,31.2213326 C23.6439994,31.4053325 26.530666,27.0519993 26.530666,27.0519993 C26.530666,27.0519993 41.8946656,7.37466648 43.3533322,5.60133319 C44.8119989,3.8279999 48.1866655,0.759999981 52.6946653,0.759999981 L65.634665,0.759999981 C65.634665,0.759999981 41.9346656,30.6586659 37.9466657,35.9866658" transform="translate(228.55 76.428)"></path>
<path d="M69.3333316,69.3333316 C69.3413316,72.5493315 70.5413316,75.4813314 72.5133315,77.7213314 L50.2426654,77.7213314 C52.221332,75.4759981 53.421332,72.5306649 53.421332,69.3026649 L53.421332,28.8613326 L19.9319995,76.6946647 C19.3959995,77.2759981 18.6479995,77.6639981 17.8093329,77.7213314 L0.12533333,77.7213314 C2.10399995,75.4759981 3.30266658,72.5306649 3.30266658,69.3026649 L3.30266658,9.61333309 C3.30266658,6.38533317 2.10399995,3.43733325 0.12533333,1.1933333 L22.3933328,1.1933333 C20.4639995,3.37733325 19.2733329,6.23999984 19.2186662,9.37466643 L19.2186662,52.7706653 L49.8359988,7.80133314 C52.6826653,4.03333323 57.1906652,1.19066664 60.4586652,1.19066664 L72.5106649,1.1933333 C70.5786649,3.37733325 69.3906649,6.23999984 69.3333316,9.37466643 L69.3333316,69.3333316 Z" transform="translate(461.92 75.996)"></path>
<path d="M46.6666655,7.9999998 C46.6666655,8.00266647 46.6639988,8.00266647 46.6613322,8.00266647 C46.6066655,7.9639998 46.5519988,7.92933314 46.4946655,7.89333314 C46.3826655,7.82266647 46.2679988,7.75733314 46.1559988,7.69066647 C44.9946655,7.02799982 43.6533322,6.64799983 42.2239989,6.64799983 C40.6253323,6.64799983 39.1333324,7.12266649 37.8853324,7.93733313 C37.8719991,7.92933314 37.8639991,7.9239998 37.8493324,7.9119998 C26.9213327,14.653333 19.6386662,26.7279993 19.6386662,40.5093323 C19.6386662,54.289332 26.918666,66.3639983 37.8439991,73.1013315 C37.8573324,73.0906648 37.8693324,73.0839982 37.8853324,73.0759982 C39.1333324,73.8879982 40.6253323,74.3613315 42.2239989,74.3613315 C43.8666656,74.3613315 45.3959989,73.8639982 46.6613322,73.0079982 L46.6773322,73.0159982 C57.5239986,66.2573317 64.742665,54.229332 64.742665,40.5093323 C64.742665,26.7853327 57.5186652,14.7519996 46.6666655,7.9999998 M43.7653322,80.3493313 C43.2373323,80.3493313 42.7133323,80.3413313 42.1906656,80.3173313 C41.6666656,80.3413313 41.139999,80.3493313 40.611999,80.3493313 C18.4999995,80.3493313 0.573333319,62.4213318 0.573333319,40.3093323 C0.573333319,18.1946662 18.4999995,0.265333327 40.611999,0.265333327 C41.139999,0.265333327 41.6666656,0.283999993 42.1906656,0.302666659 C42.7133323,0.283999993 43.2373323,0.265333327 43.7653322,0.265333327 C65.8799984,0.265333327 83.8066646,18.1946662 83.8066646,40.3093323 C83.8066646,62.4213318 65.8799984,80.3493313 43.7653322,80.3493313" transform="translate(368.69 74.944)"></path>
<path d="M66.666665,77.3333314 L53.7626653,77.3333314 C49.0213321,77.3333314 45.8959989,74.0519981 45.1066655,73.2653315 C44.3199989,72.4759982 27.7079993,50.8853321 26.650666,49.8279988 C25.5959994,48.7759988 23.6639994,46.8306655 20.2946662,46.8306655 L20.2946662,69.1359983 C20.3519995,72.2679982 21.5439995,75.1226648 23.4719994,77.3093314 L1.20266664,77.3093314 C3.18266659,75.0706648 4.38266656,72.1199982 4.38266656,68.8933316 L4.38266656,38.8693324 L4.38266656,37.1613324 L4.38266656,9.2253331 C4.38266656,5.99733318 3.18266659,3.04933326 1.20266664,0.805333313 L23.4719994,0.805333313 C21.5439995,2.99199993 20.3519995,5.85199985 20.2946662,8.98666644 L20.2946662,31.2879992 C23.6639994,31.2879992 25.5959994,29.3426659 26.650666,28.2879993 C27.7079993,27.230666 44.3199989,5.63999986 45.1066655,4.85199988 C45.8959989,4.06533323 49.0213321,0.786666647 53.7626653,0.786666647 L66.666665,0.786666647 L36.5813324,39.0773324 L66.666665,77.3333314 Z" transform="translate(302.604 76.384)"></path>
<polygon points="0 0 3.312 0 1.645 8.071" transform="translate(421.82 35.064)"></polygon>
<polygon points="0 0 3.309 0 1.643 8.071" transform="translate(364.117 35.064)"></polygon>
<path d="M515.155987,28.6653326 L512.827987,28.6653326 L512.827987,45.2933322 L515.155987,45.2933322 L515.155987,28.6653326 Z M500.049321,28.6653326 L496.593321,37.0279991 L499.926654,45.2933322 L502.403987,45.2933322 L499.043988,37.0799991 L502.625321,28.6653326 L500.049321,28.6653326 Z M495.783988,28.6653326 L493.478654,28.6653326 L493.478654,45.2933322 L495.783988,45.2933322 L495.783988,28.6653326 Z M479.502655,34.1346658 L479.502655,28.6653326 L477.169321,28.6653326 L477.169321,34.1346658 L473.125322,45.2933322 L475.502655,45.2933322 L476.898655,41.3706656 C477.409321,39.8946657 477.898655,38.3373324 478.371988,36.6839991 C478.830655,38.2853324 479.311988,39.847999 479.817321,41.3706656 L481.215988,45.2933322 L483.546655,45.2933322 L479.502655,34.1346658 Z M464.515988,43.2559989 L461.351988,43.2559989 L461.351988,28.6653326 L459.023989,28.6653326 L459.023989,43.2559989 L455.859989,43.2559989 L455.859989,45.2933322 L464.515988,45.2933322 L464.515988,43.2559989 Z M446.614656,32.2666659 C446.614656,31.0773326 446.197322,30.1573326 445.361322,29.5119993 C444.527989,28.8626659 443.357322,28.5399993 441.846656,28.5399993 C440.330656,28.5399993 439.117322,28.7119993 438.202656,29.0586659 L438.202656,31.2613326 C439.278656,30.8706659 440.418656,30.6759992 441.611989,30.6759992 C443.393322,30.6759992 444.283989,31.2799992 444.283989,32.4906659 L444.283989,33.3213325 C444.283989,33.8159992 444.194656,34.1959991 444.013322,34.4653325 C443.835989,34.7359991 443.499989,34.9986658 443.010656,35.2613325 L440.237322,36.7853324 C438.783989,37.5666657 438.054656,38.735999 438.054656,40.287999 L438.054656,41.7586656 C438.054656,42.9199989 438.434656,43.8213322 439.194656,44.4573322 C439.955989,45.0973322 441.038656,45.4159989 442.445322,45.4159989 C443.851989,45.4159989 444.994656,45.2666655 445.877322,44.9746655 L445.877322,42.7639989 C444.994656,43.1079989 443.923989,43.2799989 442.663989,43.2799989 C441.142656,43.2799989 440.382656,42.7173323 440.382656,41.583999 L440.382656,40.631999 C440.382656,40.107999 440.486656,39.695999 440.693322,39.3946657 C440.895989,39.091999 441.257322,38.7933324 441.783989,38.5013324 L444.627989,36.9053324 C445.950656,36.1866658 446.614656,35.0999991 446.614656,33.6439992 L446.614656,32.2666659 Z M426.455989,28.6653326 L425.546656,33.0799992 L421.426656,33.0799992 L420.518656,28.6653326 L418.262656,28.6653326 L421.893323,45.2933322 L425.133323,45.2933322 L428.710656,28.6653326 L426.455989,28.6653326 Z M409.41199,43.2559989 L406.24799,43.2559989 L406.24799,28.6653326 L403.918657,28.6653326 L403.918657,43.2559989 L400.754657,43.2559989 L400.754657,45.2933322 L409.41199,45.2933322 L409.41199,43.2559989 Z M390.674657,28.6653326 L388.221324,28.6653326 C385.65599,35.2226658 383.981324,39.5693323 383.194657,41.711999 C383.194657,41.531999 383.229324,41.1573323 383.294657,40.583999 C383.42399,39.159999 383.489324,37.5839991 383.489324,35.8533324 L383.489324,28.6653326 L381.234657,28.6653326 L381.234657,45.2933322 L383.710657,45.2933322 C385.98399,39.5346657 387.366657,35.9746658 387.857324,34.5973325 C388.346657,33.2253325 388.625324,32.4493325 388.690657,32.2666659 C388.690657,32.4159992 388.642657,33.1386658 388.554657,34.4386658 C388.46399,35.7439991 388.41199,36.9959991 388.393324,38.203999 L388.393324,45.2933322 L390.674657,45.2933322 L390.674657,28.6653326 Z M368.751991,28.6653326 L367.846657,33.0799992 L363.723991,33.0799992 L362.814658,28.6653326 L360.559991,28.6653326 L364.190658,45.2933322 L367.426657,45.2933322 L371.007991,28.6653326 L368.751991,28.6653326 Z M351.437325,43.2559989 L346.409325,43.2559989 L346.409325,37.6679991 L351.169325,37.6679991 L351.169325,35.6053324 L346.409325,35.6053324 L346.409325,28.6653326 L344.081325,28.6653326 L344.081325,45.2933322 L351.437325,45.2933322 L351.437325,43.2559989 Z M321.103992,28.6653326 L313.918659,28.6653326 L313.918659,45.2933322 L316.247992,45.2933322 L316.247992,30.6493326 L321.103992,30.6493326 L321.103992,28.6653326 Z M301.434659,28.6653326 L300.527992,33.0799992 L296.409326,33.0799992 L295.499993,28.6653326 L293.245326,28.6653326 L296.874659,45.2933322 L300.109326,45.2933322 L303.690659,28.6653326 L301.434659,28.6653326 Z M281.595993,28.6653326 L279.14266,28.6653326 C278.027993,35.4826658 277.377326,39.839999 277.179993,41.735999 C277.033326,39.9386657 276.81466,38.1813324 276.51866,36.4653324 L275.24266,28.6653326 L272.693327,28.6653326 L270.14266,45.2933322 L272.27866,45.2933322 L273.627993,36.7119991 L274.19066,32.2466659 C274.369326,33.7493325 274.565326,35.2359991 274.77866,36.7119991 L276.101326,45.2933322 L278.259993,45.2933322 L279.559993,36.7119991 L280.147993,32.3186659 C280.33066,34.0173325 280.507993,35.4826658 280.69066,36.7119991 L282.06266,45.2933322 L284.169326,45.2933322 L281.595993,28.6653326 Z M259.891994,28.6653326 L257.56266,28.6653326 L257.56266,45.2933322 L259.891994,45.2933322 L259.891994,28.6653326 Z M247.507994,43.2559989 L244.343994,43.2559989 L244.343994,28.6653326 L242.014661,28.6653326 L242.014661,43.2559989 L238.850661,43.2559989 L238.850661,45.2933322 L247.507994,45.2933322 L247.507994,43.2559989 Z M229.606661,32.2666659 C229.606661,31.0773326 229.187994,30.1573326 228.353328,29.5119993 C227.518661,28.8626659 226.345328,28.5399993 224.833328,28.5399993 C223.323994,28.5399993 222.109328,28.7119993 221.193328,29.0586659 L221.193328,31.2613326 C222.273328,30.8706659 223.407994,30.6759992 224.602661,30.6759992 C226.383994,30.6759992 227.275994,31.2799992 227.275994,32.4906659 L227.275994,33.3213325 C227.275994,33.8159992 227.183994,34.1959991 227.003994,34.4653325 C226.823994,34.7359991 226.489328,34.9986658 225.999994,35.2613325 L223.227994,36.7853324 C221.774661,37.5666657 221.046661,38.735999 221.046661,40.287999 L221.046661,41.7586656 C221.046661,42.9199989 221.426661,43.8213322 222.187994,44.4573322 C222.946661,45.0973322 224.027994,45.4159989 225.437328,45.4159989 C226.839994,45.4159989 227.986661,45.2666655 228.869328,44.9746655 L228.869328,42.7639989 C227.986661,43.1079989 226.914661,43.2799989 225.658661,43.2799989 C224.135994,43.2799989 223.374661,42.7173323 223.374661,41.583999 L223.374661,40.631999 C223.374661,40.107999 223.478661,39.695999 223.682661,39.3946657 C223.887994,39.091999 224.250661,38.7933324 224.774661,38.5013324 L227.617328,36.9053324 C228.943994,36.1866658 229.606661,35.0999991 229.606661,33.6439992 L229.606661,32.2666659 Z M211.238661,43.2559989 L205.965328,43.2559989 L205.965328,38.083999 L210.551995,38.083999 L210.551995,36.0479991 L205.965328,36.0479991 L205.965328,30.6759992 L211.238661,30.6759992 L211.238661,28.6653326 L203.661328,28.6653326 L203.661328,45.2933322 L211.238661,45.2933322 L211.238661,43.2559989 Z M193.335995,43.2559989 L188.309329,43.2559989 L188.309329,37.6679991 L193.065329,37.6679991 L193.065329,35.6053324 L188.309329,35.6053324 L188.309329,28.6653326 L185.978662,28.6653326 L185.978662,45.2933322 L193.335995,45.2933322 L193.335995,43.2559989 Z M166.699996,57.6546652 C159.858663,40.803999 149.078663,26.438666 134.26133,16.3053329 L534.843987,16.3053329 L534.843987,57.6546652 L166.699996,57.6546652 Z"></path>
<polygon points="0 0 3.309 0 1.643 8.071" transform="translate(296.8 35.064)"></polygon>
</g>
</svg>