<?xml version="1.0" encoding="UTF-8"?>
<svg id="Warstwa_1" data-name="Warstwa 1" xmlns="http://www.w3.org/2000/svg" viewBox="0 0 1185.26 613.16">
  <defs>
    <style>
      .cls-1 {
        fill: #454c9b;
      }

      .cls-2 {
        fill: #f59d24;
      }

      .cls-3 {
        fill: #fff;
      }

      .cls-4 {
        fill: #00a0b6;
      }

      .cls-5 {
        fill: #343873;
      }
    </style>
  </defs>
  <rect class="cls-1" x="297.18" y="384.86" width="639.32" height="63.95"/>
  <g>
    <path class="cls-3" d="M320.4,426.94c-.21,0-.38-.07-.52-.2-.13-.13-.2-.31-.2-.52v-18.75c0-.21.07-.39.2-.52s.31-.2.52-.2h12.87c.21,0,.38.07.52.2s.2.31.2.52v2.45c0,.21-.07.39-.2.52-.13.14-.31.2-.52.2h-9.09v4.88h8.51c.21,0,.38.07.52.2.13.13.2.31.2.52v2.45c0,.19-.07.36-.2.49-.13.13-.31.2-.52.2h-8.51v6.84c0,.21-.07.39-.2.52-.13.14-.31.2-.52.2h-3.06Z"/>
    <path class="cls-3" d="M345.42,426.94c-.21,0-.38-.07-.52-.2-.13-.13-.2-.31-.2-.52v-18.75c0-.21.07-.39.2-.52s.31-.2.52-.2h13.07c.21,0,.38.07.52.2.13.13.2.31.2.52v2.31c0,.19-.07.36-.2.49-.13.14-.31.2-.52.2h-9.35v4.53h8.71c.21,0,.38.07.52.2.13.13.2.31.2.52v2.13c0,.19-.07.36-.2.49-.13.13-.31.2-.52.2h-8.71v4.67h9.58c.21,0,.38.07.52.2.13.14.2.31.2.52v2.28c0,.21-.07.39-.2.52-.13.14-.31.2-.52.2h-13.3Z"/>
    <path class="cls-3" d="M377.58,427.23c-1.85,0-3.39-.27-4.63-.81s-2.18-1.24-2.81-2.11c-.63-.86-.97-1.79-1.01-2.77,0-.15.06-.29.17-.42s.26-.19.43-.19h3.09c.25,0,.44.05.58.16s.26.24.38.39c.13.33.35.65.65.95.3.31.71.56,1.23.76.52.2,1.16.3,1.93.3,1.25,0,2.19-.2,2.81-.61.63-.4.94-.95.94-1.64,0-.5-.17-.9-.5-1.21-.34-.31-.87-.59-1.59-.84-.72-.25-1.68-.52-2.87-.81-1.44-.31-2.67-.71-3.68-1.2-1.01-.49-1.77-1.13-2.28-1.9-.51-.78-.77-1.75-.77-2.9s.32-2.18.95-3.07c.63-.89,1.53-1.6,2.68-2.11,1.15-.51,2.53-.77,4.13-.77,1.29,0,2.43.17,3.42.52.99.35,1.82.8,2.48,1.36.66.56,1.17,1.16,1.51,1.79.35.64.53,1.25.55,1.85,0,.15-.06.29-.17.42s-.26.19-.43.19h-3.23c-.19,0-.37-.04-.52-.12-.15-.08-.28-.21-.38-.4-.12-.5-.46-.94-1.02-1.31-.57-.38-1.3-.56-2.21-.56s-1.69.17-2.24.52c-.55.35-.82.88-.82,1.59,0,.46.14.85.42,1.17.28.32.75.6,1.41.84.66.24,1.54.5,2.64.79,1.69.35,3.07.76,4.13,1.24s1.84,1.1,2.34,1.86c.5.76.75,1.72.75,2.87,0,1.29-.36,2.39-1.08,3.32-.72.92-1.71,1.63-2.97,2.12-1.26.49-2.73.74-4.4.74Z"/>
    <path class="cls-3" d="M401.53,426.94c-.21,0-.38-.07-.52-.2-.13-.13-.2-.31-.2-.52v-15.46h-5.25c-.19,0-.36-.07-.49-.2s-.2-.3-.2-.49v-2.6c0-.21.07-.39.2-.52s.3-.2.49-.2h15.12c.21,0,.38.07.52.2.13.13.2.31.2.52v2.6c0,.19-.07.36-.2.49-.14.13-.31.2-.52.2h-5.22v15.46c0,.21-.07.39-.2.52-.13.14-.31.2-.52.2h-3.2Z"/>
    <path class="cls-3" d="M422.33,426.94c-.21,0-.38-.07-.52-.2-.13-.13-.2-.31-.2-.52v-18.75c0-.21.07-.39.2-.52s.31-.2.52-.2h3.26c.21,0,.38.07.52.2.13.13.2.31.2.52v18.75c0,.21-.07.39-.2.52-.13.14-.31.2-.52.2h-3.26Z"/>
    <path class="cls-3" d="M441.31,426.94c-.31,0-.55-.09-.74-.26-.18-.17-.29-.39-.33-.64l-3.29-18.49s-.03-.08-.03-.12v-.09c0-.15.06-.29.17-.42s.26-.19.43-.19h3.03c.5,0,.78.2.84.61l2.16,12.2,2.34-7.59c.06-.15.15-.32.29-.49s.36-.26.66-.26h1.82c.31,0,.53.09.66.26.13.17.22.34.26.49l2.37,7.56,2.14-12.17c.06-.4.35-.61.87-.61h3.03c.17,0,.32.06.43.19s.17.26.17.42v.09s0,.08-.03.12l-3.29,18.49c-.04.25-.15.46-.33.64-.18.17-.43.26-.74.26h-2.34c-.31,0-.54-.08-.71-.24-.16-.16-.27-.33-.33-.51l-3.09-8.94-3.06,8.94c-.06.17-.17.34-.33.51-.16.16-.41.24-.74.24h-2.31Z"/>
    <path class="cls-3" d="M467.22,426.94c-.17,0-.32-.06-.43-.19s-.17-.27-.17-.42c0-.1,0-.18.03-.26l6.87-18.55c.06-.21.17-.39.35-.55.17-.15.41-.23.72-.23h3.69c.31,0,.55.08.72.23.17.15.29.34.35.55l6.87,18.55c.02.08.03.16.03.26,0,.15-.06.29-.17.42s-.26.19-.43.19h-3c-.29,0-.5-.07-.63-.2-.14-.13-.22-.26-.26-.38l-1.24-3.23h-8.14l-1.24,3.23c-.04.12-.13.24-.26.38-.13.14-.35.2-.63.2h-3ZM473.42,419.41h5.97l-2.97-8.31-3,8.31Z"/>
    <path class="cls-3" d="M496.88,426.94c-.21,0-.38-.07-.52-.2-.13-.13-.2-.31-.2-.52v-18.75c0-.21.07-.39.2-.52s.31-.2.52-.2h3.2c.21,0,.38.07.52.2s.2.31.2.52v15.61h8.94c.21,0,.38.07.52.2.13.14.2.31.2.52v2.42c0,.21-.07.39-.2.52-.13.14-.31.2-.52.2h-12.87Z"/>
    <path class="cls-3" d="M541.8,427.23c-1.81,0-3.35-.3-4.63-.91s-2.27-1.49-2.97-2.66c-.7-1.16-1.08-2.57-1.14-4.23-.02-.83-.03-1.71-.03-2.65s0-1.84.03-2.68c.06-1.61.44-2.99,1.14-4.13.7-1.13,1.7-2,3-2.61,1.3-.61,2.83-.91,4.6-.91,1.42,0,2.67.18,3.75.55,1.08.36,1.98.84,2.71,1.43.73.59,1.29,1.23,1.67,1.92s.59,1.36.61,1.99c0,.17-.06.32-.17.45s-.27.19-.46.19h-3.58c-.19,0-.34-.04-.45-.11-.11-.08-.2-.19-.27-.35-.13-.35-.35-.7-.65-1.05-.3-.36-.7-.66-1.2-.91s-1.15-.38-1.96-.38c-1.21,0-2.17.32-2.87.95-.7.63-1.08,1.67-1.14,3.11-.06,1.66-.06,3.34,0,5.05.06,1.5.45,2.58,1.17,3.23.72.66,1.69.98,2.9.98.79,0,1.49-.14,2.12-.42.62-.28,1.12-.72,1.49-1.31.37-.6.55-1.36.55-2.28v-.72h-3.14c-.19,0-.36-.07-.49-.22-.13-.14-.2-.31-.2-.5v-1.85c0-.21.07-.38.2-.52.13-.13.3-.2.49-.2h7.07c.21,0,.38.07.52.2.13.14.2.31.2.52v3.14c0,1.66-.36,3.07-1.08,4.24-.72,1.17-1.75,2.07-3.09,2.7-1.34.63-2.9.94-4.69.94Z"/>
    <path class="cls-3" d="M562.34,426.94c-.21,0-.38-.07-.52-.2-.13-.13-.2-.31-.2-.52v-18.75c0-.21.07-.39.2-.52s.31-.2.52-.2h3.26c.21,0,.38.07.52.2.13.13.2.31.2.52v18.75c0,.21-.07.39-.2.52-.13.14-.31.2-.52.2h-3.26Z"/>
    <path class="cls-3" d="M578.76,426.94c-.21,0-.38-.07-.52-.2-.13-.13-.2-.31-.2-.52v-18.75c0-.21.07-.39.2-.52s.31-.2.52-.2h13.07c.21,0,.38.07.52.2.13.13.2.31.2.52v2.31c0,.19-.07.36-.2.49-.13.14-.31.2-.52.2h-9.35v4.53h8.71c.21,0,.38.07.52.2.13.13.2.31.2.52v2.13c0,.19-.07.36-.2.49-.13.13-.31.2-.52.2h-8.71v4.67h9.58c.21,0,.38.07.52.2.13.14.2.31.2.52v2.28c0,.21-.07.39-.2.52-.13.14-.31.2-.52.2h-13.3Z"/>
    <path class="cls-3" d="M604.37,426.94c-.21,0-.38-.07-.52-.2s-.2-.31-.2-.52v-18.75c0-.21.07-.39.2-.52.14-.13.31-.2.52-.2h7.65c2.4,0,4.3.55,5.68,1.66,1.39,1.11,2.08,2.7,2.08,4.78,0,1.4-.33,2.58-1.01,3.52s-1.58,1.64-2.71,2.11l4.07,7.21c.06.11.08.22.08.32,0,.15-.06.29-.17.42s-.26.19-.43.19h-3.2c-.35,0-.61-.09-.78-.27-.17-.18-.3-.35-.38-.5l-3.52-6.61h-3.49v6.66c0,.21-.07.39-.2.52s-.31.2-.52.2h-3.14ZM608.24,415.89h3.69c1.06,0,1.84-.24,2.35-.72s.76-1.15.76-2.02-.25-1.55-.75-2.05-1.29-.75-2.36-.75h-3.69v5.54Z"/>
    <path class="cls-3" d="M645.31,426.94c-.21,0-.39-.07-.52-.2-.13-.13-.2-.31-.2-.52v-18.75c0-.21.07-.39.2-.52s.31-.2.52-.2h3.26c.21,0,.39.07.52.2.14.13.2.31.2.52v18.75c0,.21-.07.39-.2.52-.13.14-.31.2-.52.2h-3.26Z"/>
    <path class="cls-3" d="M675.55,426.94c-.21,0-.39-.07-.52-.2-.13-.13-.2-.31-.2-.52v-18.75c0-.21.07-.39.2-.52s.31-.2.52-.2h12.87c.21,0,.39.07.52.2s.2.31.2.52v2.45c0,.21-.07.39-.2.52-.13.14-.31.2-.52.2h-9.09v4.88h8.51c.21,0,.38.07.52.2s.2.31.2.52v2.45c0,.19-.07.36-.2.49-.14.13-.31.2-.52.2h-8.51v6.84c0,.21-.07.39-.2.52s-.31.2-.52.2h-3.06Z"/>
    <path class="cls-3" d="M697.5,426.94c-.17,0-.32-.06-.43-.19-.12-.13-.17-.27-.17-.42,0-.1,0-.18.03-.26l6.87-18.55c.06-.21.17-.39.35-.55.17-.15.41-.23.72-.23h3.69c.31,0,.55.08.72.23.17.15.29.34.35.55l6.87,18.55c.02.08.03.16.03.26,0,.15-.06.29-.17.42-.11.13-.26.19-.43.19h-3c-.29,0-.5-.07-.64-.2s-.22-.26-.26-.38l-1.24-3.23h-8.14l-1.24,3.23c-.04.12-.13.24-.26.38-.13.14-.35.2-.63.2h-3ZM703.71,419.41h5.97l-2.97-8.31-3,8.31Z"/>
    <path class="cls-3" d="M727.16,426.94c-.21,0-.39-.07-.52-.2-.13-.13-.2-.31-.2-.52v-18.75c0-.21.07-.39.2-.52s.31-.2.52-.2h2.63c.29,0,.5.07.63.2.14.13.22.24.26.32l7.7,12.03v-11.83c0-.21.07-.39.2-.52s.3-.2.49-.2h2.94c.21,0,.38.07.52.2.13.13.2.31.2.52v18.75c0,.19-.07.36-.2.51-.14.14-.31.22-.52.22h-2.66c-.29,0-.49-.07-.62-.22s-.22-.24-.27-.3l-7.68-11.66v11.45c0,.21-.07.39-.2.52s-.31.2-.52.2h-2.91Z"/>
    <path class="cls-3" d="M759.62,426.94c-.21,0-.38-.07-.52-.2s-.2-.31-.2-.52v-15.46h-5.25c-.19,0-.36-.07-.49-.2s-.2-.3-.2-.49v-2.6c0-.21.07-.39.2-.52s.3-.2.49-.2h15.12c.21,0,.38.07.52.2.13.13.2.31.2.52v2.6c0,.19-.07.36-.2.49-.14.13-.31.2-.52.2h-5.22v15.46c0,.21-.07.39-.2.52s-.31.2-.52.2h-3.2Z"/>
    <path class="cls-3" d="M776.44,426.94c-.17,0-.32-.06-.43-.19-.12-.13-.17-.27-.17-.42,0-.1,0-.18.03-.26l6.87-18.55c.06-.21.17-.39.35-.55.17-.15.41-.23.72-.23h3.69c.31,0,.55.08.72.23.17.15.29.34.35.55l6.87,18.55c.02.08.03.16.03.26,0,.15-.06.29-.17.42-.11.13-.26.19-.43.19h-3c-.29,0-.5-.07-.64-.2s-.22-.26-.26-.38l-1.24-3.23h-8.14l-1.24,3.23c-.04.12-.13.24-.26.38-.13.14-.35.2-.63.2h-3ZM782.64,419.41h5.97l-2.97-8.31-3,8.31Z"/>
    <path class="cls-3" d="M812.33,427.23c-1.85,0-3.39-.27-4.63-.81-1.24-.54-2.18-1.24-2.81-2.11-.63-.86-.97-1.79-1.01-2.77,0-.15.06-.29.17-.42s.26-.19.43-.19h3.09c.25,0,.44.05.58.16.13.11.26.24.37.39.14.33.35.65.65.95.3.31.71.56,1.23.76.52.2,1.16.3,1.93.3,1.25,0,2.19-.2,2.81-.61.62-.4.94-.95.94-1.64,0-.5-.17-.9-.51-1.21-.34-.31-.86-.59-1.59-.84-.72-.25-1.68-.52-2.87-.81-1.44-.31-2.67-.71-3.68-1.2-1.01-.49-1.77-1.13-2.28-1.9-.51-.78-.76-1.75-.76-2.9s.32-2.18.95-3.07c.64-.89,1.53-1.6,2.68-2.11,1.15-.51,2.53-.77,4.13-.77,1.29,0,2.43.17,3.42.52.99.35,1.82.8,2.48,1.36.66.56,1.17,1.16,1.52,1.79.35.64.53,1.25.55,1.85,0,.15-.06.29-.17.42-.12.13-.26.19-.43.19h-3.23c-.19,0-.37-.04-.52-.12-.15-.08-.28-.21-.38-.4-.12-.5-.46-.94-1.02-1.31s-1.3-.56-2.21-.56-1.69.17-2.24.52c-.55.35-.82.88-.82,1.59,0,.46.14.85.42,1.17.28.32.75.6,1.41.84.66.24,1.54.5,2.64.79,1.69.35,3.07.76,4.13,1.24,1.06.48,1.84,1.1,2.34,1.86.5.76.75,1.72.75,2.87,0,1.29-.36,2.39-1.08,3.32-.72.92-1.71,1.63-2.97,2.12-1.26.49-2.73.74-4.4.74Z"/>
    <path class="cls-3" d="M836.27,426.94c-.21,0-.38-.07-.52-.2s-.2-.31-.2-.52v-15.46h-5.25c-.19,0-.36-.07-.49-.2s-.2-.3-.2-.49v-2.6c0-.21.07-.39.2-.52s.3-.2.49-.2h15.12c.21,0,.38.07.52.2.13.13.2.31.2.52v2.6c0,.19-.07.36-.2.49-.14.13-.31.2-.52.2h-5.22v15.46c0,.21-.07.39-.2.52s-.31.2-.52.2h-3.2Z"/>
    <path class="cls-3" d="M862.32,426.94c-.21,0-.39-.07-.52-.2-.14-.13-.2-.31-.2-.52v-6.35l-6.75-12.2c-.02-.06-.04-.11-.06-.16-.02-.05-.03-.1-.03-.16,0-.15.06-.29.19-.42s.26-.19.42-.19h3.06c.27,0,.48.07.64.2.15.13.26.26.32.38l4.53,7.93,4.53-7.93c.06-.12.16-.24.32-.38.15-.13.36-.2.63-.2h3.06c.15,0,.29.06.42.19s.19.26.19.42c0,.06-.01.11-.03.16-.02.05-.04.1-.06.16l-6.75,12.2v6.35c0,.21-.07.39-.2.52-.13.14-.31.2-.52.2h-3.17Z"/>
    <path class="cls-3" d="M883.9,426.94c-.21,0-.39-.07-.52-.2-.13-.13-.2-.31-.2-.52v-18.75c0-.21.07-.39.2-.52s.31-.2.52-.2h3.06c.21,0,.38.07.52.2.13.13.2.31.2.52v6.58l5.94-6.75c.08-.11.21-.23.39-.36.18-.13.43-.19.73-.19h3.49c.17,0,.32.06.43.19.11.13.17.26.17.42,0,.14-.04.25-.12.35l-7.41,8.71,7.96,9.58c.08.08.11.19.11.35s-.06.29-.17.42c-.12.13-.26.19-.43.19h-3.61c-.35,0-.61-.08-.78-.23-.17-.15-.29-.26-.35-.32l-6.38-7.39v7.21c0,.21-.07.39-.2.52s-.31.2-.52.2h-3.06Z"/>
    <path class="cls-3" d="M910.01,426.94c-.21,0-.39-.07-.52-.2-.13-.13-.2-.31-.2-.52v-18.75c0-.21.07-.39.2-.52s.31-.2.52-.2h3.26c.21,0,.39.07.52.2.14.13.2.31.2.52v18.75c0,.21-.07.39-.2.52-.13.14-.31.2-.52.2h-3.26Z"/>
  </g>
  <g>
    <path class="cls-1" d="M326.38,230.42c-20.07-21.05-56.52-16.98-74.08-8.97-2.32,1.06-5.15,2.27-8.32,3.57h0c-18.99,7.25-49.53,18.83-61.92,21.54-17.13,3.75-20.82,6.48-15.41,13.55,20.07,21.05,56.52,16.98,74.08,8.97,2.32-1.06,5.15-2.27,8.32-3.57h0c18.99-7.25,49.53-18.83,61.92-21.54,17.13-3.75,20.82-6.48,15.41-13.55Z"/>
    <ellipse class="cls-5" cx="246.52" cy="245.27" rx="46.06" ry="11.69" transform="translate(-61.31 83.51) rotate(-17.13)"/>
    <path class="cls-5" d="M280.12,215.09c-10.78.6-20.81,3.16-27.82,6.37-2.31,1.05-5.14,2.25-8.31,3.57-9.48,3.62-21.87,8.33-33.43,12.46-2.36.85-4.71,1.68-6.96,2.45,1.1-3.01,6.44-19.38-.58-35.09-7.77-17.36-12.73-22.72-8.98-25.91,3.77-3.21,17.47-10.12,41.27-13.09.41-.05.83-.11,1.24-.16.41-.05.83-.11,1.24-.16,23.82-2.98,38.79.36,43.22,2.52,4.44,2.18.96,8.6-2.31,27.34-1.24,7.25-.27,14.06,1.41,19.71Z"/>
  </g>
  <g>
    <path class="cls-4" d="M302.92,331.18c-2.52-3.97-3.79-13.52-3.79-28.67s1.26-24.76,3.79-28.85c1.8-3,6.25-7.42,13.34-13.25,7.09-5.83,12.59-8.75,16.5-8.75s9.2,2.32,15.87,6.94c6.67,4.63,11.69,9.89,15.06,15.78l-18.57,12.8c-1.56-2.89-3.7-6.07-6.4-9.56-2.7-3.48-4.72-5.23-6.04-5.23-2.41,0-5.17,2.52-8.29,7.57-1.56,3.13-2.34,10.61-2.34,22.45s.78,19.33,2.34,22.45c.96,1.56,2.22,3.22,3.79,4.96,1.56,1.75,3.12,2.61,4.69,2.61s3.61-1.38,6.13-4.15c2.52-2.76,4.57-6.31,6.13-10.64l18.57,12.98c-3.25,6.01-8.2,11.27-14.88,15.78-6.67,4.51-11.99,6.76-15.96,6.76s-9.5-2.91-16.59-8.74c-7.09-5.83-11.54-10.25-13.34-13.25Z"/>
    <path class="cls-4" d="M419.94,253.83h23.8v91.24c0,14.3-.9,23.2-2.7,26.69-1.8,3.48-6.52,8.41-14.15,14.79-7.64,6.37-13.43,9.56-17.4,9.56s-9.08-2.07-15.33-6.22c-6.25-4.15-10.94-8.92-14.06-14.33l18.57-12.8,1.98,2.34c4.33,5.65,7.3,8.48,8.93,8.48s3.36-.78,5.23-2.34c1.86-1.56,3.18-3.13,3.97-4.69.78-1.56,1.17-7.21,1.17-16.95v-9.74c-6.73,6.49-11.75,9.74-15.06,9.74s-8.72-3.34-16.23-10.01c-7.51-6.67-11.27-13.25-11.27-19.74v-31.19c0-6.13-.72-10.88-2.16-14.24-1.44-3.36-3.73-6.31-6.85-8.84l19.83-13.88c8.65,6.85,12.98,16.59,12.98,29.21v36.42c0,2.05,1.14,4.18,3.43,6.4,2.28,2.23,4.27,3.34,5.95,3.34s4.81-2.46,9.38-7.39v-65.82Z"/>
    <path class="cls-4" d="M459.07,272.76v-18.93h63.47v12.8l-38.59,64.01h12.98c6.37,0,12.26-2.4,17.67-7.21l12.26,14.6c-3.13,4.21-7.33,7.42-12.62,9.65-5.29,2.23-10.64,3.34-16.05,3.34h-40.93v-15.33l36.6-62.93h-34.8Z"/>
    <path class="cls-4" d="M584.11,344.35c-7.39,5.89-12.83,8.84-16.32,8.84s-8.93-2.94-16.32-8.84c-7.39-5.89-11.93-10.28-13.61-13.16-2.52-4.45-3.79-14.06-3.79-28.85s1.26-24.34,3.79-28.67c1.68-2.89,6.22-7.27,13.61-13.16,7.39-5.89,12.83-8.84,16.32-8.84s8.93,2.95,16.32,8.84c7.39,5.89,11.93,10.28,13.61,13.16,2.53,4.33,3.79,13.88,3.79,28.67s-1.26,24.4-3.79,28.85c-1.69,2.89-6.22,7.27-13.61,13.16ZM563.38,329.74c1.86,1.8,3.34,2.7,4.42,2.7s2.55-.9,4.42-2.7c1.86-1.8,3.21-3.43,4.06-4.87,1.56-2.64,2.34-10.1,2.34-22.36s-.78-19.77-2.34-22.54c-.84-1.44-2.19-3.07-4.06-4.87-1.86-1.8-3.34-2.7-4.42-2.7s-2.56.9-4.42,2.7c-1.86,1.8-3.22,3.43-4.06,4.87-1.56,2.65-2.34,10.1-2.34,22.36s.78,19.78,2.34,22.54c.84,1.44,2.19,3.07,4.06,4.87Z"/>
    <path class="cls-4" d="M642.44,351.02h-23.8v-62.21c0-6.13-.75-10.91-2.25-14.34-1.5-3.43-3.76-6.4-6.76-8.93l19.83-13.88c4.33,3.61,7.63,7.82,9.92,12.62,8.89-8.41,15.15-12.62,18.75-12.62,2.4,0,6.07,2.23,11,6.67,4.93,4.45,7.81,9.32,8.65,14.61l-19.29,13.88c-.12-2.89-.81-5.71-2.07-8.47-1.26-2.76-2.38-4.15-3.34-4.15-2.05,0-5.59,2.52-10.64,7.57v69.24Z"/>
    <path class="cls-4" d="M730.25,253.83h23.8v91.24c0,14.3-.9,23.2-2.7,26.69-1.8,3.48-6.52,8.41-14.15,14.79-7.64,6.37-13.43,9.56-17.4,9.56s-9.08-2.07-15.33-6.22c-6.25-4.15-10.94-8.92-14.06-14.33l18.57-12.8,1.98,2.34c4.33,5.65,7.3,8.48,8.93,8.48s3.36-.78,5.23-2.34c1.86-1.56,3.18-3.13,3.97-4.69.78-1.56,1.17-7.21,1.17-16.95v-9.74c-6.73,6.49-11.75,9.74-15.06,9.74s-8.72-3.34-16.23-10.01c-7.51-6.67-11.27-13.25-11.27-19.74v-31.19c0-6.13-.72-10.88-2.16-14.24-1.44-3.36-3.73-6.31-6.85-8.84l19.83-13.88c8.65,6.85,12.98,16.59,12.98,29.21v36.42c0,2.05,1.14,4.18,3.43,6.4,2.28,2.23,4.26,3.34,5.95,3.34s4.81-2.46,9.38-7.39v-65.82Z"/>
    <path class="cls-2" d="M799.49,351.02h-23.8v-98.45c0-6.13-.72-10.82-2.16-14.06-1.44-3.25-3.73-6.19-6.85-8.84l19.83-13.88c8.65,6.85,12.98,16.53,12.98,29.03v20.56c9.38-9.13,15.62-13.7,18.75-13.7s8.66,3.43,16.59,10.28c7.93,6.85,12.02,12.2,12.26,16.05,0,2.77-1.89,7.45-5.68,14.06-3.79,6.61-7.42,11.66-10.91,15.15,8.77,10.82,14.36,20.86,16.77,30.11l-22.72,15.87c-2.77-9.74-5.65-17.82-8.65-24.25-3.01-6.43-7.21-12.47-12.62-18.12v-6.31c3.72-2.64,7.69-6.52,11.9-11.63,4.2-5.11,6.61-9.04,7.21-11.81-3.37-4.57-6.25-6.85-8.66-6.85-1.32,0-3.51,1.29-6.58,3.88-3.07,2.59-5.62,5.02-7.66,7.3v65.63Z"/>
    <path class="cls-2" d="M910.11,344.35c-7.39,5.89-12.83,8.84-16.32,8.84s-8.93-2.94-16.32-8.84c-7.39-5.89-11.93-10.28-13.62-13.16-2.52-4.45-3.79-14.06-3.79-28.85s1.26-24.34,3.79-28.67c1.68-2.89,6.22-7.27,13.62-13.16,7.39-5.89,12.83-8.84,16.32-8.84s8.93,2.95,16.32,8.84c7.39,5.89,11.93,10.28,13.61,13.16,2.53,4.33,3.79,13.88,3.79,28.67s-1.26,24.4-3.79,28.85c-1.69,2.89-6.22,7.27-13.61,13.16ZM889.38,329.74c1.86,1.8,3.34,2.7,4.42,2.7s2.55-.9,4.42-2.7c1.86-1.8,3.21-3.43,4.06-4.87,1.56-2.64,2.34-10.1,2.34-22.36s-.78-19.77-2.34-22.54c-.84-1.44-2.2-3.07-4.06-4.87-1.87-1.8-3.34-2.7-4.42-2.7s-2.56.9-4.42,2.7c-1.86,1.8-3.22,3.43-4.06,4.87-1.56,2.65-2.34,10.1-2.34,22.36s.78,19.78,2.34,22.54c.84,1.44,2.19,3.07,4.06,4.87Z"/>
    <path class="cls-2" d="M968.44,351.02h-23.8v-62.21c0-6.13-.72-10.88-2.16-14.24-1.44-3.36-3.73-6.31-6.85-8.84l19.83-13.88c4.45,3.61,7.75,7.75,9.92,12.44,8.89-8.41,15.18-12.62,18.84-12.62s9.2,3.34,16.59,10.01c7.39,6.67,11.09,13.25,11.09,19.74v34.8c0,6.13.72,10.88,2.16,14.25,1.44,3.37,3.72,6.31,6.85,8.83l-19.83,13.88c-8.65-6.85-12.98-16.59-12.98-29.21v-40.03c0-2.04-1.08-4.18-3.25-6.4-2.16-2.22-4.18-3.34-6.04-3.34s-5.32,2.52-10.37,7.57v69.24Z"/>
    <g>
      <path class="cls-4" d="M218.53,246.42c-.05.11-.11.2-.16.31l3.95-4.71c-1.64,1.66-2.9,3.12-3.79,4.4Z"/>
      <path class="cls-4" d="M287.23,300.15c1.32,2.16,1.98,6.46,1.98,12.89s-1.32,11.86-3.97,16.32c-2.4,3.48-7.52,8.33-15.33,14.52-7.81,6.18-13.58,9.29-17.31,9.29-6.62,0-14.17-3.46-22.72-10.37-8.53-6.91-13.94-14.52-16.23-22.81l20.01-13.7c1.93,5.64,4.99,10.82,9.2,15.51,4.2,4.69,7.18,7.03,8.93,7.03s3.61-.58,5.59-1.71c1.98-1.14,3.52-2.31,4.6-3.52,1.57-1.93,2.34-4.92,2.34-9.02s-.96-6.62-2.89-7.57c-2.4-2.04-7.05-4.74-13.97-8.11-6.91-3.37-13.31-7-19.2-10.91-5.88-3.91-9.65-7.72-11.27-11.45-.2-.45-.38-.9-.54-1.37-1.19-3.34-1.82-7.45-1.88-12.32-.02-.27-.02-.56-.02-.83,0-5.82,1.28-10.91,3.8-15.29l3.95-4.71c6-2.81,13.07-5.55,20.75-7.92,8.89-2.74,17.38-4.62,24.67-5.59,1.98,1.28,4.04,2.78,6.15,4.47,1.51,1.23,2.94,2.49,4.27,3.75,1.71,1.66,3.26,3.35,4.65,5.08,2.34,2.94,4.2,5.99,5.59,9.12.69,1.59,1.26,3.21,1.71,4.85l-20.01,13.88c-1.21-3.59-2.9-7-5.05-10.22-1.23-1.86-2.61-3.64-4.15-5.37-.32-.36-.63-.7-.94-1.05-3.71-4.04-6.37-6.08-7.99-6.08-1.75,0-3.62.54-5.68,1.62-2.04,1.08-3.7,2.43-4.96,4.06-1.08,1.39-1.69,3.62-1.84,6.69-.04.5-.05,1.05-.05,1.6,0,3.53.97,6,2.94,7.41.2.16.43.31.67.43,1.93,1.68,6.31,4.33,13.16,7.93,17.56,9.61,27.89,17.44,31.01,23.44Z"/>
    </g>
  </g>
  <polygon class="cls-2" points="278.87 414.3 270.76 413.76 267.7 406.08 264.64 413.76 256.53 414.3 262.75 419.58 260.71 427.59 267.7 423.17 274.69 427.59 272.65 419.58 278.87 414.3"/>
  <polygon class="cls-2" points="977.15 414.3 969.03 413.76 965.97 406.08 962.92 413.76 954.81 414.3 961.03 419.58 958.98 427.59 965.97 423.17 972.96 427.59 970.92 419.58 977.15 414.3"/>
  <polygon class="cls-2" points="316.57 183.93 308.59 185.51 303.65 178.88 302.68 187.09 294.99 189.71 302.36 193.2 302.46 201.47 308.07 195.39 315.96 197.85 311.92 190.64 316.57 183.93"/>
  <polygon class="cls-2" points="205.08 297.77 197.38 295.15 196.41 286.94 191.47 293.57 183.5 291.98 188.14 298.7 184.1 305.91 191.99 303.45 197.6 309.52 197.7 301.26 205.08 297.77"/>
</svg>